<svg width="22" height="18" viewBox="0 0 22 18" fill="none" xmlns="http://www.w3.org/2000/svg">
<path d="M18 12.4C18 12.9523 18.4477 13.4 19 13.4C19.5523 13.4 20 12.9523 20 12.4H18ZM1.2 12.4C1.2 12.9523 1.64772 13.4 2.2 13.4C2.75228 13.4 3.2 12.9523 3.2 12.4H1.2ZM4.3 2H16.9V0H4.3V2ZM18 3.03077V12.4H20V3.03077H18ZM3.2 12.4V3.03077H1.2V12.4H3.2ZM16.9 2C17.5394 2 18 2.49282 18 3.03077H20C20 1.32559 18.5802 0 16.9 0V2ZM4.3 0C2.61978 0 1.2 1.32559 1.2 3.03077H3.2C3.2 2.49282 3.66062 2 4.3 2V0ZM2.2 14H19V12H2.2V14ZM19.2 14.2V15.4H21.2V14.2H19.2ZM19 15.6H2.2V17.6H19V15.6ZM2 15.4V14.2H0V15.4H2ZM2.2 15.6C2.08954 15.6 2 15.5105 2 15.4H0C0 16.615 0.984974 17.6 2.2 17.6V15.6ZM19.2 15.4C19.2 15.5105 19.1105 15.6 19 15.6V17.6C20.215 17.6 21.2 16.615 21.2 15.4H19.2ZM19 14C19.1105 14 19.2 14.0895 19.2 14.2H21.2C21.2 12.985 20.215 12 19 12V14ZM2.2 12C0.984974 12 0 12.985 0 14.2H2C2 14.0895 2.08954 14 2.2 14V12Z" fill="black"/>
</svg>
